REM DIRINDEX 1\2,1\3
REM DIRNAME folder01,folder02,folder03
TITLE ""
FILE "CD2Track09.mp3" MP3
  TRACK 01 AUDIO
    TITLE "0:"
    INDEX 01 00:00:00
  TRACK 02 AUDIO
    TITLE "2:cjc102_2595"
    INDEX 01 00:00:25
  TRACK 03 AUDIO
    TITLE "0:"
    INDEX 01 00:01:05
  TRACK 04 AUDIO
    TITLE "3:cjc102_2596"
    INDEX 01 00:01:19
  TRACK 05 AUDIO
    TITLE "0:"
    INDEX 01 00:02:59
  TRACK 06 AUDIO
    TITLE "3:cjc102_2597"
    INDEX 01 00:03:45
  TRACK 07 AUDIO
    TITLE "0:"
    INDEX 01 00:07:15
  TRACK 08 AUDIO
    TITLE "2:cjc102_2598"
    INDEX 01 00:07:19
  TRACK 09 AUDIO
    TITLE "0:"
    INDEX 01 00:08:19
  TRACK 10 AUDIO
    TITLE "3:cjc102_2599"
    INDEX 01 00:09:20
  TRACK 11 AUDIO
    TITLE "0:"
    INDEX 01 00:10:16
  TRACK 12 AUDIO
    TITLE "2:cjc102_2600"
    INDEX 01 00:10:43
  TRACK 13 AUDIO
    TITLE "0:"
    INDEX 01 00:11:66
  TRACK 14 AUDIO
    TITLE "3:cjc102_2601"
    INDEX 01 00:12:18
  TRACK 15 AUDIO
    TITLE "0:"
    INDEX 01 00:13:04
  TRACK 16 AUDIO
    TITLE "2:cjc102_2602"
    INDEX 01 00:13:69
  TRACK 17 AUDIO
    TITLE "0:"
    INDEX 01 00:14:74
  TRACK 18 AUDIO
    TITLE "3:cjc102_2603"
    INDEX 01 00:15:66
  TRACK 19 AUDIO
    TITLE "0:"
    INDEX 01 00:16:67
  TRACK 20 AUDIO
    TITLE "2:cjc102_2604"
    INDEX 01 00:17:08
  TRACK 21 AUDIO
    TITLE "0:"
    INDEX 01 00:18:21
  TRACK 22 AUDIO
    TITLE "3:cjc102_2605"
    INDEX 01 00:19:22
  TRACK 23 AUDIO
    TITLE "0:"
    INDEX 01 00:20:20
  TRACK 24 AUDIO
    TITLE "2:cjc102_2606"
    INDEX 01 00:20:47
  TRACK 25 AUDIO
    TITLE "0:"
    INDEX 01 00:21:57
  TRACK 26 AUDIO
    TITLE "3:cjc102_2607"
    INDEX 01 00:22:38
  TRACK 27 AUDIO
    TITLE "0:"
    INDEX 01 00:23:18
  TRACK 28 AUDIO
    TITLE "2:cjc102_2608"
    INDEX 01 00:23:61
  TRACK 29 AUDIO
    TITLE "0:"
    INDEX 01 00:25:03
  TRACK 30 AUDIO
    TITLE "3:cjc102_2609"
    INDEX 01 00:26:07
  TRACK 31 AUDIO
    TITLE "0:"
    INDEX 01 00:27:04
  TRACK 32 AUDIO
    TITLE "2:cjc102_2610"
    INDEX 01 00:27:36
  TRACK 33 AUDIO
    TITLE "0:"
    INDEX 01 00:28:47
  TRACK 34 AUDIO
    TITLE "3:cjc102_2611"
    INDEX 01 00:29:46
  TRACK 35 AUDIO
    TITLE "0:"
    INDEX 01 00:30:42
  TRACK 36 AUDIO
    TITLE "2:cjc102_2612"
    INDEX 01 00:31:00
  TRACK 37 AUDIO
    TITLE "0:"
    INDEX 01 00:32:13
  TRACK 38 AUDIO
    TITLE "3:cjc102_2613"
    INDEX 01 00:33:13
  TRACK 39 AUDIO
    TITLE "0:"
    INDEX 01 00:34:08
  TRACK 40 AUDIO
    TITLE "2:cjc102_2614"
    INDEX 01 00:34:42
  TRACK 41 AUDIO
    TITLE "0:"
    INDEX 01 00:35:64
  TRACK 42 AUDIO
    TITLE "3:cjc102_2615"
    INDEX 01 00:36:46
  TRACK 43 AUDIO
    TITLE "0:"
    INDEX 01 00:37:40
  TRACK 44 AUDIO
    TITLE "2:cjc102_2616"
    INDEX 01 00:38:12
  TRACK 45 AUDIO
    TITLE "0:"
    INDEX 01 00:39:31
  TRACK 46 AUDIO
    TITLE "3:cjc102_2617"
    INDEX 01 00:40:28
  TRACK 47 AUDIO
    TITLE "0:"
    INDEX 01 00:41:22
  TRACK 48 AUDIO
    TITLE "2:cjc102_2618"
    INDEX 01 00:41:42
  TRACK 49 AUDIO
    TITLE "0:"
    INDEX 01 00:42:59
  TRACK 50 AUDIO
    TITLE "3:cjc102_2619"
    INDEX 01 00:43:64
  TRACK 51 AUDIO
    TITLE "0:"
    INDEX 01 00:45:06
  TRACK 52 AUDIO
    TITLE "2:cjc102_2620"
    INDEX 01 00:45:16
  TRACK 53 AUDIO
    TITLE "0:"
    INDEX 01 00:46:02
  TRACK 54 AUDIO
    TITLE "3:cjc102_2621"
    INDEX 01 00:46:58
  TRACK 55 AUDIO
    TITLE "0:"
    INDEX 01 00:47:68
  TRACK 56 AUDIO
    TITLE "2:cjc102_2622"
    INDEX 01 00:48:26
  TRACK 57 AUDIO
    TITLE "0:"
    INDEX 01 00:49:16
  TRACK 58 AUDIO
    TITLE "3:cjc102_2623"
    INDEX 01 00:50:25
  TRACK 59 AUDIO
    TITLE "0:"
    INDEX 01 00:51:42
  TRACK 60 AUDIO
    TITLE "2:cjc102_2624"
    INDEX 01 00:51:46
  TRACK 61 AUDIO
    TITLE "0:"
    INDEX 01 00:52:39
  TRACK 62 AUDIO
    TITLE "3:cjc102_2625"
    INDEX 01 00:53:11
  TRACK 63 AUDIO
    TITLE "0:"
    INDEX 01 00:54:30
  TRACK 64 AUDIO
    TITLE "2:cjc102_2626"
    INDEX 01 00:54:72
  TRACK 65 AUDIO
    TITLE "0:"
    INDEX 01 00:55:65
  TRACK 66 AUDIO
    TITLE "3:cjc102_2627"
    INDEX 01 00:57:03
  TRACK 67 AUDIO
    TITLE "0:"
    INDEX 01 00:58:11
  TRACK 68 AUDIO
    TITLE "2:cjc102_2628"
    INDEX 01 00:58:32
  TRACK 69 AUDIO
    TITLE "0:"
    INDEX 01 00:59:38
  TRACK 70 AUDIO
    TITLE "2:cjc102_2629"
    INDEX 01 01:00:17
  TRACK 71 AUDIO
    TITLE "0:"
    INDEX 01 01:01:34
  TRACK 72 AUDIO
    TITLE "3:cjc102_2630"
    INDEX 01 01:02:65
  TRACK 73 AUDIO
    TITLE "0:"
    INDEX 01 01:04:00
  TRACK 74 AUDIO
    TITLE "2:cjc102_2631"
    INDEX 01 01:04:01
  TRACK 75 AUDIO
    TITLE "0:"
    INDEX 01 01:05:03
  TRACK 76 AUDIO
    TITLE "2:cjc102_2632"
    INDEX 01 01:05:64
  TRACK 77 AUDIO
    TITLE "0:"
    INDEX 01 01:07:02
  TRACK 78 AUDIO
    TITLE "3:cjc102_2633"
    INDEX 01 01:07:51
  TRACK 79 AUDIO
    TITLE "0:"
    INDEX 01 01:08:72
  TRACK 80 AUDIO
    TITLE "2:cjc102_2634"
    INDEX 01 01:08:74
  TRACK 81 AUDIO
    TITLE "0:"
    INDEX 01 01:10:02
  TRACK 82 AUDIO
    TITLE "2:cjc102_2635"
    INDEX 01 01:10:61
  TRACK 83 AUDIO
    TITLE "0:"
    INDEX 01 01:11:72
  TRACK 84 AUDIO
    TITLE "3:cjc102_2636"
    INDEX 01 01:12:54
  TRACK 85 AUDIO
    TITLE "0:"
    INDEX 01 01:14:04
  TRACK 86 AUDIO
    TITLE "2:cjc102_2637"
    INDEX 01 01:14:23
  TRACK 87 AUDIO
    TITLE "0:"
    INDEX 01 01:15:15
  TRACK 88 AUDIO
    TITLE "2:cjc102_2638"
    INDEX 01 01:15:35
  TRACK 89 AUDIO
    TITLE "0:"
    INDEX 01 01:16:32
  TRACK 90 AUDIO
    TITLE "3:cjc102_2639"
    INDEX 01 01:17:35
  TRACK 91 AUDIO
    TITLE "0:"
    INDEX 01 01:18:58
  TRACK 92 AUDIO
    TITLE "2:cjc102_2640"
    INDEX 01 01:18:60
  TRACK 93 AUDIO
    TITLE "0:"
    INDEX 01 01:20:44
  TRACK 94 AUDIO
    TITLE "3:cjc102_2641"
    INDEX 01 01:21:59
  TRACK 95 AUDIO
    TITLE "0:"
    INDEX 01 01:22:72
  TRACK 96 AUDIO
    TITLE "2:cjc102_2642"
    INDEX 01 01:23:42
  TRACK 97 AUDIO
    TITLE "0:"
    INDEX 01 01:25:62
  TRACK 98 AUDIO
    TITLE "3:cjc102_2643"
    INDEX 01 01:27:10
  TRACK 99 AUDIO
    TITLE "0:"
    INDEX 01 01:28:41
  TRACK 100 AUDIO
    TITLE "2:cjc102_2644"
    INDEX 01 01:28:71
  TRACK 101 AUDIO
    TITLE "0:"
    INDEX 01 01:31:26
  TRACK 102 AUDIO
    TITLE "3:cjc102_2645"
    INDEX 01 01:32:43
  TRACK 103 AUDIO
    TITLE "0:"
    INDEX 01 01:33:66
  TRACK 104 AUDIO
    TITLE "2:cjc102_2646"
    INDEX 01 01:34:12
  TRACK 105 AUDIO
    TITLE "0:"
    INDEX 01 01:35:20
  TRACK 106 AUDIO
    TITLE "3:cjc102_2647"
    INDEX 01 01:36:35
  TRACK 107 AUDIO
    TITLE "0:"
    INDEX 01 01:37:52
  TRACK 108 AUDIO
    TITLE "2:cjc102_2648"
    INDEX 01 01:37:56
  TRACK 109 AUDIO
    TITLE "0:"
    INDEX 01 01:38:59
  TRACK 110 AUDIO
    TITLE "3:cjc102_2649"
    INDEX 01 01:40:36
  TRACK 111 AUDIO
    TITLE "0:"
    INDEX 01 01:41:67
  TRACK 112 AUDIO
    TITLE "2:cjc102_2650"
    INDEX 01 01:42:06
  TRACK 113 AUDIO
    TITLE "0:"
    INDEX 01 01:43:07
  TRACK 114 AUDIO
    TITLE "3:cjc102_2651"
    INDEX 01 01:44:54
  TRACK 115 AUDIO
    TITLE "0:"
    INDEX 01 01:46:00
  TRACK 116 AUDIO
    TITLE "2:cjc102_2652"
    INDEX 01 01:46:10
  TRACK 117 AUDIO
    TITLE "0:"
    INDEX 01 01:47:29
